#!OML:ASF H:\LiuWeirdWalks\Patient Classification 1\Patient 1\Session 1\male.ASF
:FULLY-SPECIFIED
:DEGREES
495
root 2.46077 17.9712 -23.5261 3.42683 5.55393 -0.198664
lowerback 10.3195 0.302776 -2.96245
upperback 5.27818 0.186696 2.84522
thorax -0.30163 0.00828971 4.61008
lowerneck -38.4786 -1.99413 3.46567
upperneck 21.8089 -3.21761 -4.65812
head 13.413 -1.81995 -3.13694
rclavicle 1.59028e-014 6.36111e-015
rhumerus -11.0469 -40.702 -8.38828
rradius 30.863
rwrist 4.30086
rhand -20.4017 -5.56355
rfingers 7.12502
rthumb 5.95199 -35.4599
lclavicle 1.59028e-014 6.36111e-015
lhumerus -19.0785 34.8497 23.3165
lradius 34.4444
lwrist 6.35555
lhand -18.0462 -4.05215
lfingers 7.12502
lthumb 8.22576 25.7677
rfemur -21.2646 -10.9174 10.4453
rtibia 38.2075
rfoot -12.9497 -20.1945
rtoes -7.92094
lfemur -6.09261 1.8816 -22.8763
ltibia 23.8785
lfoot -12.7318 14.6338
ltoes -7.87029
496
root 2.45935 17.9698 -23.4965 3.43501 5.56894 -0.0389372
lowerback 10.4106 0.27434 -2.84896
upperback 5.24831 0.157244 2.8033
thorax -0.380029 -0.00169364 4.50483
lowerneck -38.329 -2.04959 3.48714
upperneck 21.7338 -3.31252 -4.62745
head 13.3515 -1.85506 -3.14098
rclavicle -7.35503e-015 3.49861e-014
rhumerus -11.0126 -40.7121 -8.18205
rradius 30.9436
rwrist 4.29791
rhand -20.4326 -5.56685
rfingers 7.12502
rthumb 5.92214 -35.4641
lclavicle -7.35503e-015 3.49861e-014
lhumerus -19.1866 34.646 23.6426
lradius 34.409
lwrist 6.29886
lhand -17.9551 -3.98216
lfingers 7.12502
lthumb 8.31365 25.8342
rfemur -21.7654 -10.7939 10.3108
rtibia 37.9853
rfoot -12.7306 -20.2698
rtoes -7.92326
lfemur -5.85383 1.82645 -23.0538
ltibia 23.6295
lfoot -12.6765 14.7188
ltoes -7.78447
497
root 2.45657 17.9685 -23.4664 3.43662 5.59922 0.100712
lowerback 10.4996 0.229945 -2.73189
upperback 5.24614 0.107717 2.79907
thorax -0.426407 -0.0233268 4.4394
lowerneck -38.3083 -2.07945 3.48048
upperneck 21.7176 -3.34773 -4.63406
head 13.3393 -1.87223 -3.14878
rclavicle -1.25234e-014 1.82882e-014
rhumerus -10.8664 -40.77 -7.98157
rradius 31.0211
rwrist 4.27537
rhand -20.4677 -5.5671
rfingers 7.12502
rthumb 5.88826 -35.4653
lclavicle -1.25234e-014 1.82882e-014
lhumerus -19.3389 34.5244 23.9885
lradius 34.3768
lwrist 6.21231
lhand -17.8588 -3.94517
lfingers 7.12502
lthumb 8.40663 25.8675
rfemur -22.2368 -10.6709 10.1954
rtibia 37.746
rfoot -12.4931 -20.3601
rtoes -7.92038
lfemur -5.6105 1.76096 -23.2034
ltibia 23.3841
lfoot -12.6207 14.7998
ltoes -7.70489
498
root 2.45247 17.9677 -23.4356 3.43137 5.64594 0.217943
lowerback 10.5931 0.17422 -2.59489
upperback 5.25982 0.0454396 2.8123
thorax -0.457654 -0.0517873 4.38249
lowerneck -38.3438 -2.10558 3.45009
upperneck 21.6842 -3.3643 -4.64699
head 13.3306 -1.88491 -3.1523
rclavicle 1.23246e-014 7.15625e-015
rhumerus -10.6644 -40.8752 -7.78246
rradius 31.0967
rwrist 4.23852
rhand -20.5315 -5.60578
rfingers 7.12502
rthumb 5.82667 -35.5057
lclavicle 1.23246e-014 7.15625e-015
lhumerus -19.4962 34.4482 24.3435
lradius 34.3549
lwrist 6.1257
lhand -17.7878 -3.90146
lfingers 7.12502
lthumb 8.47512 25.9085
rfemur -22.6739 -10.5457 10.1007
rtibia 37.4885
rfoot -12.2514 -20.452
rtoes -7.90199
lfemur -5.36172 1.68652 -23.3214
ltibia 23.136
lfoot -12.5567 14.8747
ltoes -7.65537
499
root 2.44719 17.9669 -23.404 3.42704 5.71638 0.34314
lowerback 10.6775 0.112217 -2.46873
upperback 5.27964 -0.0257184 2.82664
thorax -0.476884 -0.0852126 4.33397
lowerneck -38.4118 -2.12373 3.42291
upperneck 21.6672 -3.37067 -4.66526
head 13.3346 -1.89353 -3.1578
rclavicle 1.61016e-014 5.56597e-015
rhumerus -10.454 -41.0278 -7.56544
rradius 31.1668
rwrist 4.24063
rhand -20.581 -5.64132
rfingers 7.12502
rthumb 5.7789 -35.5425
lclavicle 1.61016e-014 5.56597e-015
lhumerus -19.6334 34.3947 24.7038
lradius 34.3374
lwrist 5.99657
lhand -17.7215 -3.8944
lfingers 7.12502
lthumb 8.53912 25.9129
rfemur -23.0837 -10.4368 9.99176
rtibia 37.2175
rfoot -12.0089 -20.5418
rtoes -7.86894
lfemur -5.10397 1.58878 -23.4433
ltibia 22.8757
lfoot -12.484 14.9474
ltoes -7.62739
